# xmcd
#
# Track frame offsets: 
#        150
#        450
#        16694
#        31926
#        66791
#        96236
#        137569
#        167949
#        216686
#
# Disc length: 3119 seconds
#
# Revision: 0
# Processed by: cddbd v1.5.2PL0 Copyright (c) Steve Scherf et al.
# Submitted via: ExactAudioCopy v1.3
#
DISCID=730c2d09
DTITLE=The Nighthawks - Backtrack
DYEAR=1988
DGENRE=Chicago Blues
TTITLE0=Backtrack
TTITLE1=Pretty Girls and Cadillacs
TTITLE2=Screamin' and Cryin'
TTITLE3=Pinetop's Boogie Woogie
TTITLE4=On My Job
TTITLE5=Sugar Mama
TTITLE6=Hip Shake Mama
TTITLE7=Sad and Lonesome
TTITLE8=Nine Below Zero
EXTD=
EXTT0=
EXTT1=
EXTT2=
EXTT3=
EXTT4=
EXTT5=
EXTT6=
EXTT7=
EXTT8=
PLAYORDER=
